<mxfile host="app.diagrams.net" modified="2023-05-22T07:12:10.556Z" agent="Mozilla/5.0 (Windows NT 10.0; Win64; x64) AppleWebKit/537.36 (KHTML, like Gecko) Chrome/113.0.0.0 Safari/537.36" etag="sKFMdxEd5VdUKTEFwQds" version="21.3.2" type="device">
  <diagram name="페이지-1" id="DTAfWJp9-JVvUfhpDhlf">
    <mxGraphModel dx="1687" dy="889" grid="1" gridSize="10" guides="1" tooltips="1" connect="1" arrows="1" fold="1" page="1" pageScale="1" pageWidth="4681" pageHeight="3300" math="0" shadow="0">
      <root>
        <mxCell id="0" />
        <mxCell id="1" parent="0" />
        <mxCell id="qJ-tsdge4mS3n3JTtoIu-9" style="edgeStyle=orthogonalEdgeStyle;rounded=0;orthogonalLoop=1;jettySize=auto;html=1;" edge="1" parent="1" source="qJ-tsdge4mS3n3JTtoIu-1" target="qJ-tsdge4mS3n3JTtoIu-8">
          <mxGeometry relative="1" as="geometry" />
        </mxCell>
        <mxCell id="qJ-tsdge4mS3n3JTtoIu-1" value="관리자(DBA)" style="shape=umlActor;verticalLabelPosition=bottom;verticalAlign=top;html=1;outlineConnect=0;" vertex="1" parent="1">
          <mxGeometry x="240" y="440" width="160" height="260" as="geometry" />
        </mxCell>
        <mxCell id="qJ-tsdge4mS3n3JTtoIu-7" value="Storage" style="shape=cylinder3;whiteSpace=wrap;html=1;boundedLbl=1;backgroundOutline=1;size=15;" vertex="1" parent="1">
          <mxGeometry x="1190" y="480" width="140" height="150" as="geometry" />
        </mxCell>
        <mxCell id="qJ-tsdge4mS3n3JTtoIu-14" style="edgeStyle=orthogonalEdgeStyle;rounded=0;orthogonalLoop=1;jettySize=auto;html=1;entryX=0.014;entryY=0.6;entryDx=0;entryDy=0;entryPerimeter=0;" edge="1" parent="1" source="qJ-tsdge4mS3n3JTtoIu-8" target="qJ-tsdge4mS3n3JTtoIu-7">
          <mxGeometry relative="1" as="geometry" />
        </mxCell>
        <mxCell id="qJ-tsdge4mS3n3JTtoIu-28" style="edgeStyle=orthogonalEdgeStyle;rounded=0;orthogonalLoop=1;jettySize=auto;html=1;entryX=0;entryY=0.5;entryDx=0;entryDy=0;" edge="1" parent="1" source="qJ-tsdge4mS3n3JTtoIu-8" target="qJ-tsdge4mS3n3JTtoIu-26">
          <mxGeometry relative="1" as="geometry" />
        </mxCell>
        <mxCell id="qJ-tsdge4mS3n3JTtoIu-8" value="Sys 로그인" style="rounded=1;whiteSpace=wrap;html=1;" vertex="1" parent="1">
          <mxGeometry x="550" y="540" width="210" height="60" as="geometry" />
        </mxCell>
        <mxCell id="qJ-tsdge4mS3n3JTtoIu-20" style="rounded=0;orthogonalLoop=1;jettySize=auto;html=1;" edge="1" parent="1" source="qJ-tsdge4mS3n3JTtoIu-11" target="qJ-tsdge4mS3n3JTtoIu-17">
          <mxGeometry relative="1" as="geometry" />
        </mxCell>
        <mxCell id="qJ-tsdge4mS3n3JTtoIu-11" value="DB, User Create&lt;br&gt;DB, User DROP&lt;br&gt;DB Alter" style="rounded=1;whiteSpace=wrap;html=1;" vertex="1" parent="1">
          <mxGeometry x="930" y="540" width="110" height="70" as="geometry" />
        </mxCell>
        <mxCell id="qJ-tsdge4mS3n3JTtoIu-13" value="DDL&lt;br&gt;(Data Definition Lang)" style="text;html=1;strokeColor=none;fillColor=none;align=center;verticalAlign=middle;whiteSpace=wrap;rounded=0;" vertex="1" parent="1">
          <mxGeometry x="915" y="500" width="140" height="30" as="geometry" />
        </mxCell>
        <mxCell id="qJ-tsdge4mS3n3JTtoIu-22" style="edgeStyle=orthogonalEdgeStyle;rounded=0;orthogonalLoop=1;jettySize=auto;html=1;" edge="1" parent="1" source="qJ-tsdge4mS3n3JTtoIu-17" target="qJ-tsdge4mS3n3JTtoIu-21">
          <mxGeometry relative="1" as="geometry" />
        </mxCell>
        <mxCell id="qJ-tsdge4mS3n3JTtoIu-17" value="유저(User)" style="shape=umlActor;verticalLabelPosition=bottom;verticalAlign=top;html=1;outlineConnect=0;" vertex="1" parent="1">
          <mxGeometry x="240" y="827.5" width="155" height="245" as="geometry" />
        </mxCell>
        <mxCell id="qJ-tsdge4mS3n3JTtoIu-23" style="edgeStyle=orthogonalEdgeStyle;rounded=0;orthogonalLoop=1;jettySize=auto;html=1;entryX=0.584;entryY=1.007;entryDx=0;entryDy=0;entryPerimeter=0;" edge="1" parent="1" source="qJ-tsdge4mS3n3JTtoIu-21" target="qJ-tsdge4mS3n3JTtoIu-7">
          <mxGeometry relative="1" as="geometry" />
        </mxCell>
        <mxCell id="qJ-tsdge4mS3n3JTtoIu-21" value="&amp;nbsp;User 로그인" style="rounded=1;whiteSpace=wrap;html=1;" vertex="1" parent="1">
          <mxGeometry x="850" y="920" width="120" height="60" as="geometry" />
        </mxCell>
        <mxCell id="qJ-tsdge4mS3n3JTtoIu-24" value="CREATE : INSERT&lt;br&gt;READ : SELECT&lt;br&gt;UPDATE : UPDATE&lt;br&gt;DELETE : DELTE" style="rounded=1;whiteSpace=wrap;html=1;" vertex="1" parent="1">
          <mxGeometry x="1160" y="870" width="190" height="110" as="geometry" />
        </mxCell>
        <mxCell id="qJ-tsdge4mS3n3JTtoIu-25" value="DML&lt;br&gt;(Data Manipulation Language)" style="text;html=1;strokeColor=none;fillColor=none;align=center;verticalAlign=middle;whiteSpace=wrap;rounded=0;" vertex="1" parent="1">
          <mxGeometry x="1155" y="980" width="210" height="60" as="geometry" />
        </mxCell>
        <mxCell id="qJ-tsdge4mS3n3JTtoIu-27" style="edgeStyle=orthogonalEdgeStyle;rounded=0;orthogonalLoop=1;jettySize=auto;html=1;entryX=0.635;entryY=0.011;entryDx=0;entryDy=0;entryPerimeter=0;" edge="1" parent="1" source="qJ-tsdge4mS3n3JTtoIu-26" target="qJ-tsdge4mS3n3JTtoIu-7">
          <mxGeometry relative="1" as="geometry" />
        </mxCell>
        <mxCell id="qJ-tsdge4mS3n3JTtoIu-26" value="GRANT&lt;br&gt;REVOKE&lt;br&gt;COMMT&lt;br&gt;ROLL BACK&lt;br&gt;" style="rounded=1;whiteSpace=wrap;html=1;" vertex="1" parent="1">
          <mxGeometry x="1010" y="300" width="140" height="100" as="geometry" />
        </mxCell>
        <mxCell id="qJ-tsdge4mS3n3JTtoIu-29" value="DCL&lt;br&gt;(Data Control Lang)" style="text;html=1;strokeColor=none;fillColor=none;align=center;verticalAlign=middle;whiteSpace=wrap;rounded=0;" vertex="1" parent="1">
          <mxGeometry x="1010" y="250" width="140" height="30" as="geometry" />
        </mxCell>
      </root>
    </mxGraphModel>
  </diagram>
</mxfile>
